<?xml version="1.0" encoding="utf-8"?>
<!-- Generator: Adobe Illustrator 27.3.1, SVG Export Plug-In . SVG Version: 6.00 Build 0)  -->
<svg version="1.1" id="Layer_1" xmlns="http://www.w3.org/2000/svg" xmlns:xlink="http://www.w3.org/1999/xlink" x="0px" y="0px"
	 viewBox="0 0 41.27 45.52" style="enable-background:new 0 0 41.27 45.52;" xml:space="preserve">
<style type="text/css">
	.st0{fill:#F36F25;}
	.st1{fill:#C32327;}
	.st2{fill:#A01D21;}
	.st3{fill:#FCB323;}
	.st4{fill:#FFD65D;}
	.st5{fill:#FFFFFF;}
</style>
<path class="st0" d="M3.17,13.77c-1.91,3.12-2.95,6.69-3.03,10.35c-0.07,3.66,0.82,7.27,2.6,10.47c1.78,3.19,4.38,5.85,7.52,7.71
	c3.14,1.85,6.72,2.83,10.37,2.83s7.23-0.98,10.37-2.83c3.14-1.85,5.74-4.51,7.52-7.71c1.78-3.19,2.68-6.81,2.6-10.47
	c-0.07-3.66-1.12-7.23-3.03-10.35H3.17z"/>
<path class="st1" d="M31.09,13.77h-20.9c-2.36,2.12-4.02,4.92-4.77,8.01c-0.74,3.09-0.54,6.34,0.6,9.31
	c1.13,2.97,3.14,5.53,5.75,7.33c2.61,1.8,5.7,2.77,8.87,2.77c3.17,0,6.26-0.97,8.87-2.77c2.61-1.8,4.61-4.36,5.75-7.33
	c1.13-2.97,1.34-6.22,0.6-9.31C35.11,18.68,33.45,15.89,31.09,13.77z M14.99,34.06h-3.97V20.29l2.25-4.29h1.71L14.99,34.06z
	 M32.33,30.79h-2.31v3.27h-3.98v-3.27h-9.13V27.9l6.14-11.88h4.39l-5.78,11.06h4.39v-4.61l1.3-2.32h2.67v6.92h2.31V30.79z"/>
<path class="st2" d="M20.65,38.99c-3.96,0-7.78-1.51-10.67-4.23c-2.9-2.72-4.66-6.43-4.93-10.4c-0.03,0.37-0.04,0.71-0.04,1.08
	c0.06,4.12,1.74,8.06,4.66,10.95c2.93,2.89,6.87,4.52,10.98,4.52s8.05-1.62,10.98-4.52c2.93-2.89,4.6-6.83,4.66-10.95
	c0.01-0.35-0.01-0.7-0.04-1.05c-0.28,3.96-2.04,7.68-4.94,10.39C28.42,37.48,24.61,38.99,20.65,38.99z"/>
<path class="st2" d="M26.05,34.06h3.96v-3.27h2.31v-3.71h-2.31v-6.92h-2.67l-1.3,2.32v4.61h-4.39l5.8-11.06h-4.39L16.92,27.9v2.89
	h9.13V34.06z"/>
<path class="st2" d="M14.98,16.03h-1.72l-2.25,4.27v13.77h3.96V16.03z"/>
<path class="st3" d="M38.1,13.77h-3.92c2.22,2.6,3.66,5.78,4.13,9.18c0.48,3.39-0.03,6.85-1.45,9.97c-1.42,3.11-3.71,5.75-6.58,7.6
	c-2.87,1.85-6.21,2.83-9.63,2.83s-6.75-0.98-9.63-2.83c-2.87-1.85-5.16-4.49-6.58-7.6c-1.42-3.11-1.93-6.57-1.45-9.97
	s1.91-6.58,4.13-9.18H3.17c-1.91,3.12-2.95,6.69-3.03,10.35c-0.07,3.66,0.82,7.27,2.6,10.47c1.78,3.19,4.38,5.85,7.52,7.71
	c3.14,1.85,6.72,2.83,10.37,2.83s7.23-0.98,10.37-2.83c3.14-1.85,5.74-4.51,7.52-7.71c1.78-3.19,2.68-6.81,2.6-10.47
	C41.06,20.46,40.01,16.89,38.1,13.77z"/>
<path class="st1" d="M3.53,0.4h7.64v11.15H3.53c-0.49,0-0.95-0.19-1.29-0.54C1.89,10.67,1.7,10.2,1.7,9.71V2.23
	c0-0.49,0.19-0.95,0.54-1.3C2.58,0.59,3.05,0.4,3.53,0.4z"/>
<path class="st0" d="M20.65,0.4h-9.48v11.15h9.48V0.4z"/>
<path class="st3" d="M30.13,0.4h-9.48v11.15h9.48V0.4z"/>
<path class="st4" d="M30.15,0.4h7.64c0.49,0,0.95,0.19,1.29,0.54c0.34,0.34,0.54,0.81,0.54,1.3v7.47c0,0.49-0.19,0.95-0.54,1.3
	c-0.34,0.34-0.81,0.54-1.29,0.54h-7.64V0.4z"/>
<path class="st5" d="M8.16,9.59L5.89,6.74H5.28v2.85H3.57V2.37h1.71v2.81h0.63l2.06-2.81h1.96v0.19L7.3,5.88l2.63,3.23v0.47H8.16z
	 M18.67,9.59h-5.49V2.37h5.49v1.55h-3.79v1.26h3.56v1.55h-3.56v1.32h3.79V9.59z M28.72,9.59h-1.66l-3.29-4.41v4.41h-1.69V2.37h1.64
	L27,6.78V2.37h1.69v7.22H28.72z M38.1,9.59h-1.72V6.76h-3.02v2.83h-1.71V2.37h1.71v2.77h3.02V2.37h1.71L38.1,9.59z"/>
<path class="st5" d="M14.98,34.06h-3.96V20.29l2.25-4.29h1.71V34.06z M32.32,30.79h-2.31v3.27h-3.96v-3.27h-9.13V27.9l6.14-11.88
	h4.39l-5.78,11.06h4.39v-4.61l1.3-2.32h2.67v6.92h2.31L32.32,30.79z"/>
</svg>
